<?xml version="1.0" encoding="iso-8859-1"?>
<!-- Generator: Adobe Illustrator 19.0.0, SVG Export Plug-In . SVG Version: 6.00 Build 0)  -->
<svg version="1.1" id="Capa_1" xmlns="http://www.w3.org/2000/svg" xmlns:xlink="http://www.w3.org/1999/xlink" x="0px" y="0px"
	 height="25" width="25" viewBox="0 0 444.082 444.082" style="enable-background:new 0 0 444.082 444.082;" xml:space="preserve">
<g>
	<path style="fill:#32BEA6;" d="M138.449,206.89c-6.269-5.747-16.196-5.747-21.943,0.522s-5.747,16.196,0.522,21.943l94.041,87.771
		c3.135,2.612,6.792,4.18,10.449,4.18s7.837-1.567,10.449-4.18l94.041-87.771c6.269-5.747,6.792-15.673,0.522-21.943
		c-6.269-6.269-15.673-6.792-21.943-0.522l-66.873,63.216V15.673C237.714,6.792,230.922,0,222.041,0s-15.673,6.792-15.673,15.673
		v254.433L138.449,206.89z"/>
	<path style="fill:#32BEA6;" d="M394.449,99.265h-94.041c-8.882,0-15.673,6.792-15.673,15.673s6.792,15.673,15.673,15.673h78.367
		v282.122H65.306V130.612h78.367c8.882,0,15.673-6.792,15.673-15.673s-6.792-15.673-15.673-15.673H49.633
		c-8.882,0-15.673,6.792-15.673,15.673v313.469c0,8.882,6.792,15.673,15.673,15.673h344.816c8.882,0,15.673-6.792,15.673-15.673
		V114.939C410.122,106.057,403.331,99.265,394.449,99.265z"/>
</g>
<g>
</g>
<g>
</g>
<g>
</g>
<g>
</g>
<g>
</g>
<g>
</g>
<g>
</g>
<g>
</g>
<g>
</g>
<g>
</g>
<g>
</g>
<g>
</g>
<g>
</g>
<g>
</g>
<g>
</g>
</svg>
